<svg width="1055" height="130" viewBox="0 0 1055 130" fill="none" xmlns="http://www.w3.org/2000/svg">
<g clip-path="url(#clip0_8_105)">
<path d="M347.48 63.4996L272.412 129.662C272.217 129.842 271.974 129.961 271.712 130.004C271.45 130.047 271.182 130.013 270.939 129.904C270.697 129.796 270.492 129.619 270.349 129.396C270.207 129.172 270.133 128.911 270.137 128.646V97.6216C270.137 97.2622 269.994 96.9175 269.74 96.6633C269.486 96.4092 269.141 96.2664 268.782 96.2664H189.793C189.434 96.2664 189.089 96.1236 188.835 95.8695C188.581 95.6153 188.438 95.2706 188.438 94.9112V88.9096C188.438 88.5502 188.581 88.2054 188.835 87.9513C189.089 87.6971 189.434 87.5544 189.793 87.5544H221.64C222 87.5544 222.345 87.4116 222.599 87.1575C222.853 86.9033 222.996 86.5586 222.996 86.1992V82.4724C222.996 82.2944 222.961 82.1182 222.892 81.9538C222.824 81.7894 222.725 81.6399 222.599 81.5141C222.473 81.3882 222.323 81.2885 222.159 81.2204C221.995 81.1523 221.818 81.1172 221.64 81.1172H165.206C165.028 81.1172 164.852 81.0821 164.687 81.014C164.523 80.9459 164.374 80.8461 164.248 80.7202C164.122 80.5944 164.022 80.445 163.954 80.2806C163.886 80.1162 163.851 79.94 163.851 79.762V75.3576C163.851 75.1796 163.886 75.0034 163.954 74.839C164.022 74.6746 164.122 74.5252 164.248 74.3993C164.374 74.2735 164.523 74.1737 164.687 74.1056C164.852 74.0375 165.028 74.0024 165.206 74.0024H249.906C250.265 74.0024 250.61 73.8596 250.864 73.6055C251.118 73.3513 251.261 73.0066 251.261 72.6472V68.4364C251.261 68.077 251.118 67.7323 250.864 67.4781C250.61 67.224 250.265 67.0812 249.906 67.0812H88.492C88.1326 67.0812 87.7879 66.9384 87.5337 66.6843C87.2796 66.4301 87.1368 66.0854 87.1368 65.726V61.2248C87.1368 60.8654 87.2796 60.5207 87.5337 60.2665C87.7879 60.0124 88.1326 59.8696 88.492 59.8696H234.563C234.923 59.8696 235.267 59.7268 235.521 59.4726C235.776 59.2185 235.918 58.8738 235.918 58.5144V54.352C235.918 53.9926 235.776 53.6479 235.521 53.3937C235.267 53.1396 234.923 52.9968 234.563 52.9968H145.556C145.196 52.9968 144.851 52.854 144.597 52.5999C144.343 52.3457 144.2 52.001 144.2 51.6416V46.9468C144.2 46.5874 144.343 46.2427 144.597 45.9885C144.851 45.7344 145.196 45.5916 145.556 45.5916H225.851C226.211 45.5916 226.555 45.4488 226.809 45.1947C227.064 44.9405 227.206 44.5958 227.206 44.2364V39.59C227.206 39.2306 227.064 38.8859 226.809 38.6317C226.555 38.3776 226.211 38.2348 225.851 38.2348H206.54C206.18 38.2348 205.835 38.092 205.581 37.8379C205.327 37.5837 205.184 37.239 205.184 36.8796V31.846C205.184 31.4866 205.327 31.1419 205.581 30.8877C205.835 30.6336 206.18 30.4908 206.54 30.4908H269.508C269.867 30.4908 270.212 30.348 270.466 30.0939C270.72 29.8397 270.863 29.495 270.863 29.1356V1.4024C270.867 1.14627 270.944 0.896542 271.084 0.682155C271.224 0.467768 271.422 0.297495 271.655 0.19111C271.888 0.0847247 272.147 0.0465759 272.401 0.0810693C272.655 0.115563 272.893 0.221294 273.09 0.386006L347.48 61.4184C347.633 61.5456 347.755 61.7047 347.84 61.8845C347.924 62.0643 347.967 62.2604 347.967 62.459C347.967 62.6575 347.924 62.8536 347.84 63.0334C347.755 63.2133 347.633 63.3724 347.48 63.4996Z" fill="#0C0D0B"/>
<path d="M380.247 86.9735C386.926 90.4906 395.316 92.0394 405.415 91.62C407.973 91.5101 410.395 90.5106 412.204 88.8179C414.013 87.1253 415.079 84.8619 415.192 82.4724C415.321 80.2137 414.321 77.6969 412.191 74.922C411.52 74.0586 410.699 73.3358 409.771 72.7924C390.895 62.2412 373.036 55.8524 374.246 34.6048C375.698 8.71078 410.739 8.12997 428.454 16.2128C429.119 16.5096 429.658 17.0314 429.977 17.6864C430.295 18.3414 430.373 19.0878 430.196 19.7944L427.776 29.8132C427.706 30.1182 427.565 30.4023 427.364 30.6422C427.163 30.8822 426.908 31.0713 426.62 31.194C426.332 31.3167 426.019 31.3696 425.707 31.3483C425.395 31.327 425.092 31.2322 424.824 31.0716C417.983 26.9092 409.949 25.4733 400.72 26.764C398.606 27.0545 396.671 28.0451 395.286 29.5457C393.902 31.0463 393.165 32.9513 393.218 34.8952C393.46 45.5432 406.238 49.8024 417.709 56.288C431.454 64.0804 440.021 77.4872 432.18 92.2976C422.5 110.641 395.348 108.415 378.408 103.236C377.712 103.028 377.101 102.606 376.665 102.031C376.229 101.456 375.992 100.758 375.988 100.042V89.5388C375.989 89.0387 376.118 88.5472 376.365 88.1119C376.611 87.6766 376.965 87.3124 377.394 87.0543C377.822 86.7963 378.31 86.6533 378.81 86.6391C379.31 86.625 379.805 86.7402 380.247 86.9735Z" fill="#0C0D0B"/>
<path d="M488.131 51.448C496.262 51.448 501.441 51.2383 503.667 50.8188C504.426 50.6827 505.114 50.2883 505.609 49.7045C506.104 49.1207 506.376 48.3845 506.378 47.6244V15.1964C506.378 14.2979 506.735 13.4361 507.37 12.8007C508.005 12.1654 508.867 11.8084 509.766 11.8084H521.624C522.613 11.8072 523.564 12.1847 524.277 12.8616C524.99 13.5386 525.41 14.4622 525.447 15.4384C525.576 18.4392 525.625 32.8947 525.592 58.8048C525.592 84.715 525.512 99.1704 525.35 102.171C525.313 103.147 524.894 104.071 524.18 104.748C523.467 105.425 522.516 105.802 521.527 105.801H509.669C508.77 105.801 507.909 105.444 507.273 104.809C506.638 104.174 506.281 103.312 506.281 102.413L506.329 69.9852C506.342 69.2237 506.082 68.4815 505.595 67.8886C505.108 67.2957 504.426 66.8899 503.667 66.7424C501.409 66.323 496.23 66.1132 488.131 66.1132C480.032 66.1132 474.853 66.323 472.594 66.7424C471.844 66.8884 471.168 67.287 470.682 67.8699C470.197 68.4528 469.932 69.1835 469.932 69.9368V102.365C469.932 103.263 469.575 104.125 468.94 104.761C468.305 105.396 467.443 105.753 466.544 105.753H454.686C453.697 105.754 452.746 105.377 452.033 104.7C451.32 104.023 450.9 103.099 450.863 102.123C450.734 99.122 450.669 84.6666 450.669 58.7564C450.701 32.8463 450.782 18.3908 450.911 15.39C450.949 14.4138 451.368 13.4902 452.081 12.8132C452.794 12.1363 453.745 11.7588 454.735 11.76H466.593C467.042 11.76 467.486 11.8492 467.901 12.0224C468.315 12.1957 468.69 12.4496 469.006 12.7694C469.321 13.0891 469.57 13.4684 469.737 13.885C469.904 14.3017 469.987 14.7474 469.981 15.1964L469.932 47.6244C469.932 48.3777 470.197 49.1084 470.682 49.6913C471.168 50.2742 471.844 50.6728 472.594 50.8188C474.853 51.2383 480.032 51.448 488.131 51.448Z" fill="#0C0D0B"/>
<path d="M628.257 70.4344C627.615 80.6448 622.942 90.1819 615.268 96.9475C607.594 103.713 597.547 107.153 587.336 106.511L580.284 106.067C575.228 105.749 570.285 104.438 565.735 102.21C561.186 99.981 557.121 96.8782 553.77 93.0784C550.42 89.2785 547.852 84.856 546.211 80.0634C544.57 75.2708 543.889 70.2019 544.207 65.1462L545.283 48.0465C545.925 37.836 550.598 28.299 558.272 21.5333C565.946 14.7677 575.993 11.3277 586.204 11.9701L593.256 12.4139C598.312 12.732 603.255 14.0427 607.805 16.2713C612.354 18.4999 616.419 21.6026 619.77 25.4025C623.12 29.2023 625.688 33.6248 627.329 38.4174C628.97 43.21 629.651 48.2789 629.333 53.3347L628.257 70.4344ZM586.593 93.0715C592.793 93.1039 598.758 89.5809 603.175 83.2775C607.592 76.9741 610.1 68.4065 610.147 59.4597C610.194 50.5128 607.776 41.9195 603.425 35.5701C599.074 29.2208 593.147 25.6354 586.947 25.6029C580.747 25.5705 574.782 29.0935 570.365 35.397C565.948 41.7004 563.44 50.2679 563.393 59.2148C563.346 68.1616 565.764 76.7549 570.115 83.1043C574.466 89.4537 580.393 93.039 586.593 93.0715Z" fill="#0C0D0B"/>
<path d="M649.884 12.5828C669.211 11.0018 683.151 11.1147 691.701 12.9216C718.757 18.6812 721.177 54.7876 702.446 70.4208C693.589 77.7776 680.956 77.7292 668.518 77.342C668.198 77.329 667.879 77.3807 667.58 77.494C667.281 77.6073 667.008 77.7799 666.778 78.0015C666.547 78.223 666.364 78.4889 666.239 78.7831C666.113 79.0774 666.049 79.3938 666.049 79.7136V103.623C666.049 104.227 665.81 104.805 665.383 105.232C664.956 105.658 664.378 105.898 663.774 105.898H648.916C648.261 105.898 647.633 105.633 647.17 105.161C646.707 104.689 646.447 104.049 646.447 103.381V16.3096C646.444 15.3617 646.798 14.4487 647.437 13.7563C648.075 13.064 648.95 12.6443 649.884 12.5828ZM666.001 29.0388L666.098 59.6276C666.098 60.4492 666.424 61.237 667.005 61.8179C667.586 62.3989 668.374 62.7252 669.195 62.7252L679.166 62.6768C681.2 62.6705 683.212 62.2624 685.089 61.4758C686.966 60.6891 688.67 59.5394 690.103 58.0922C691.537 56.645 692.672 54.9287 693.445 53.0413C694.217 51.1539 694.612 49.1323 694.605 47.092V41.3808C694.592 37.2604 692.948 33.3137 690.035 30.4092C687.121 27.5046 683.176 25.88 679.069 25.8928L669.098 25.9412C668.277 25.9412 667.489 26.2676 666.908 26.8485C666.327 27.4294 666.001 28.2173 666.001 29.0388Z" fill="#0C0D0B"/>
<path d="M775.675 55.2232C780.564 62.9672 783.226 69.6464 787.485 75.2124C787.556 75.3098 787.655 75.3801 787.769 75.4137C787.883 75.4474 788.006 75.4428 788.122 75.4006C788.238 75.3585 788.341 75.2807 788.418 75.1779C788.494 75.075 788.54 74.9519 788.55 74.8252V15.2932C788.55 14.5487 788.845 13.8347 789.372 13.3082C789.898 12.7818 790.612 12.486 791.357 12.486H803.505C804.186 12.486 804.838 12.7563 805.319 13.2374C805.8 13.7184 806.07 14.3709 806.07 15.0512V104.01C806.07 104.597 805.839 105.162 805.424 105.586C805.009 106.01 804.443 106.26 803.844 106.285C796.681 106.543 792.115 106.447 790.147 105.995C788.286 105.58 786.657 104.472 785.597 102.897C784.081 100.703 775.756 87.619 760.623 63.6448C755.783 55.9492 753.121 49.2216 748.862 43.704C748.8 43.5829 748.699 43.4904 748.576 43.4417C748.452 43.393 748.315 43.3911 748.185 43.4363C748.055 43.4814 747.941 43.571 747.861 43.6901C747.782 43.8092 747.742 43.9507 747.748 44.0912V103.623C747.748 104.368 747.453 105.082 746.926 105.608C746.4 106.135 745.686 106.43 744.941 106.43H732.793C732.112 106.43 731.46 106.16 730.979 105.679C730.498 105.198 730.228 104.546 730.228 103.865V14.906C730.228 14.3191 730.459 13.7547 730.874 13.3308C731.289 12.9069 731.855 12.6562 732.454 12.6312C739.617 12.3731 744.183 12.4699 746.151 12.9216C748.022 13.3128 749.669 14.4046 750.749 15.9708C752.266 18.165 760.574 31.2491 775.675 55.2232Z" fill="#0C0D0B"/>
<path d="M878.283 53.1904V62.8704C878.283 63.5251 878.023 64.1529 877.56 64.6158C877.097 65.0787 876.47 65.3388 875.815 65.3388H851.76C851.105 65.3388 850.478 65.5989 850.015 66.0618C849.552 66.5247 849.292 67.1526 849.292 67.8072V88.3289C849.292 88.653 849.356 88.9739 849.48 89.2734C849.604 89.5729 849.785 89.845 850.015 90.0742C850.244 90.3034 850.516 90.4853 850.815 90.6093C851.115 90.7334 851.436 90.7972 851.76 90.7972H888.447C889.102 90.7972 889.73 91.0573 890.193 91.5202C890.656 91.9831 890.916 92.6109 890.916 93.2656V103.478C890.916 104.133 890.656 104.761 890.193 105.223C889.73 105.686 889.102 105.946 888.447 105.946H832.448C831.794 105.946 831.166 105.686 830.703 105.223C830.24 104.761 829.98 104.133 829.98 103.478V14.6156C829.98 13.9609 830.24 13.3331 830.703 12.8702C831.166 12.4073 831.794 12.1472 832.448 12.1472H884.527C885.182 12.1472 885.809 12.4073 886.272 12.8702C886.735 13.3331 886.995 13.9609 886.995 14.6156V25.2152C886.995 25.8699 886.735 26.4977 886.272 26.9606C885.809 27.4235 885.182 27.6836 884.527 27.6836H851.76C851.105 27.6836 850.478 27.9437 850.015 28.4066C849.552 28.8695 849.292 29.4974 849.292 30.152V48.2536C849.292 48.9083 849.552 49.5361 850.015 49.999C850.478 50.462 851.105 50.722 851.76 50.722H875.815C876.47 50.722 877.097 50.9821 877.56 51.445C878.023 51.9079 878.283 52.5357 878.283 53.1904Z" fill="#0C0D0B"/>
<path d="M937.573 44.0912C938.218 44.0912 939.235 42.9134 940.622 40.558C945.946 31.362 950.625 23.1178 954.658 15.8256C955.272 14.7132 956.175 13.7855 957.273 13.1387C958.371 12.4919 959.624 12.1495 960.902 12.1472H973.728C974.181 12.1412 974.626 12.2592 975.016 12.489C975.406 12.7187 975.727 13.0517 975.945 13.4529C976.163 13.8541 976.27 14.3086 976.254 14.7687C976.239 15.2288 976.102 15.6775 975.858 16.0676C968.339 27.7158 959.837 41.5099 950.351 57.4496C950.286 57.5464 950.254 58.0627 950.254 58.9984C950.254 59.9664 950.27 60.4988 950.302 60.5956C959.531 76.6966 967.807 90.6358 975.132 102.413C975.368 102.809 975.495 103.262 975.5 103.723C975.505 104.185 975.387 104.638 975.159 105.034C974.931 105.431 974.601 105.756 974.204 105.976C973.808 106.197 973.359 106.303 972.905 106.285L960.079 106.043C958.808 106.014 957.568 105.649 956.488 104.986C955.408 104.322 954.526 103.384 953.932 102.268C950.028 94.9112 945.478 86.6025 940.284 77.342C938.961 74.9543 937.976 73.7604 937.331 73.7604C936.686 73.7281 935.669 74.9058 934.282 77.2936C928.958 86.4573 924.279 94.6853 920.246 101.978C919.632 103.09 918.729 104.018 917.631 104.664C916.533 105.311 915.28 105.654 914.002 105.656H901.176C900.723 105.662 900.279 105.544 899.888 105.314C899.498 105.084 899.177 104.751 898.96 104.35C898.742 103.949 898.635 103.495 898.65 103.034C898.665 102.574 898.802 102.126 899.047 101.736C906.565 90.0873 915.067 76.2933 924.554 60.3536C924.618 60.2568 924.65 59.7405 924.65 58.8048C924.65 57.869 924.634 57.3528 924.602 57.256C915.374 41.1549 907.097 27.2157 899.773 15.4384C899.537 15.0422 899.409 14.5895 899.405 14.1282C899.4 13.6669 899.518 13.214 899.746 12.8175C899.974 12.4209 900.303 12.0953 900.7 11.8751C901.097 11.6549 901.546 11.5482 901.999 11.5664L914.825 11.76C916.096 11.789 917.336 12.1541 918.416 12.8175C919.496 13.481 920.379 14.4191 920.972 15.5352C924.876 22.892 929.426 31.2168 934.621 40.5096C935.944 42.8973 936.928 44.0912 937.573 44.0912Z" fill="#0C0D0B"/>
<path d="M1018.06 12.0988C1029.55 12.1311 1040.41 12.1472 1050.64 12.1472C1051.75 12.1472 1052.82 12.5908 1053.61 13.3805C1054.4 14.1702 1054.85 15.2412 1054.85 16.358V24.4408C1054.85 25.3137 1054.49 26.1508 1053.87 26.768C1053.24 27.3853 1052.39 27.732 1051.51 27.732H1030.84C1030.06 27.732 1029.31 28.0431 1028.75 28.5968C1028.2 29.1505 1027.89 29.9014 1027.89 30.6844V102.462C1027.89 103.352 1027.54 104.206 1026.93 104.84C1026.31 105.474 1025.47 105.837 1024.6 105.85C1023.47 105.882 1021.27 105.898 1018.01 105.898C1014.76 105.898 1012.58 105.882 1011.48 105.85C1011.04 105.85 1010.61 105.762 1010.2 105.592C1009.8 105.422 1009.43 105.172 1009.12 104.858C1008.81 104.543 1008.56 104.169 1008.39 103.758C1008.23 103.347 1008.14 102.907 1008.14 102.462L1008.19 30.6844C1008.19 29.9014 1007.88 29.1505 1007.32 28.5968C1006.77 28.0431 1006.02 27.732 1005.24 27.732H984.57C983.684 27.732 982.835 27.3853 982.208 26.768C981.582 26.1508 981.23 25.3137 981.23 24.4408V16.358C981.23 15.2412 981.674 14.1702 982.463 13.3805C983.253 12.5908 984.324 12.1472 985.441 12.1472C995.702 12.1472 1006.58 12.1311 1018.06 12.0988Z" fill="#0C0D0B"/>
<path d="M121.956 30.5823L105.501 30.4962C103.683 30.4867 102.202 31.9524 102.192 33.7701L102.187 34.8349C102.177 36.6525 103.643 38.1338 105.46 38.1433L121.916 38.2294C123.734 38.239 125.215 36.7732 125.225 34.9555L125.23 33.8907C125.24 32.0731 123.774 30.5919 121.956 30.5823Z" fill="#0C0D0B"/>
<path d="M161.105 30.5383L133.905 30.4433C132.141 30.4372 130.705 31.8624 130.699 33.6266L130.695 34.9818C130.688 36.746 132.114 38.1811 133.878 38.1873L161.078 38.2822C162.843 38.2884 164.278 36.8632 164.284 35.099L164.289 33.7438C164.295 31.9796 162.87 30.5444 161.105 30.5383Z" fill="#0C0D0B"/>
<path d="M196.12 30.4557L175.986 30.526C174.462 30.5313 173.231 31.7707 173.237 33.2944L173.244 35.424C173.25 36.9476 174.489 38.1784 176.013 38.1731L196.147 38.1028C197.671 38.0975 198.901 36.858 198.896 35.3344L198.889 33.2048C198.883 31.6812 197.644 30.4504 196.12 30.4557Z" fill="#0C0D0B"/>
<path d="M59.0019 52.9876C62.3358 52.7662 64.9151 50.7272 64.7627 48.4334C64.6103 46.1397 61.7841 44.4597 58.4501 44.6811C55.1162 44.9026 52.537 46.9416 52.6893 49.2353C52.8417 51.5291 55.6679 53.2091 59.0019 52.9876Z" fill="#0C0D0B"/>
<path d="M129.832 45.1074L74.6564 45.0111C72.6783 45.0076 71.072 46.6084 71.0685 48.5864L71.0675 49.1672C71.0641 51.1453 72.6648 52.7516 74.6429 52.7551L129.819 52.8514C131.797 52.8548 133.403 51.2541 133.407 49.276L133.408 48.6952C133.411 46.7172 131.81 45.1108 129.832 45.1074Z" fill="#0C0D0B"/>
<path d="M29.1197 58.0036L16.7294 57.9604C15.3661 57.9556 14.2571 59.0569 14.2524 60.4202L14.2405 63.8081C14.2358 65.1714 15.3371 66.2804 16.7003 66.2851L29.0906 66.3284C30.4539 66.3332 31.5629 65.2319 31.5676 63.8686L31.5795 60.4807C31.5842 59.1174 30.4829 58.0084 29.1197 58.0036Z" fill="#0C0D0B"/>
<path d="M4.276 66.5972C6.52137 66.5972 8.3416 64.777 8.3416 62.5316C8.3416 60.2862 6.52137 58.466 4.276 58.466C2.03063 58.466 0.210403 60.2862 0.210403 62.5316C0.210403 64.777 2.03063 66.5972 4.276 66.5972Z" fill="#0C0D0B"/>
<path d="M71.6006 59.0699L44.1115 58.734C42.5612 58.7151 41.2891 59.9564 41.2702 61.5067L41.2395 64.0233C41.2205 65.5736 42.4619 66.8457 44.0122 66.8646L71.5013 67.2005C73.0516 67.2194 74.3237 65.978 74.3426 64.4278L74.3733 61.9111C74.3923 60.3609 73.1509 59.0888 71.6006 59.0699Z" fill="#0C0D0B"/>
<path d="M23.9903 81.4074C26.8236 81.4322 29.1352 79.7621 29.1534 77.6772C29.1716 75.5923 26.8895 73.8821 24.0561 73.8573C21.2228 73.8326 18.9112 75.5027 18.893 77.5876C18.8748 79.6725 21.1569 81.3827 23.9903 81.4074Z" fill="#0C0D0B"/>
<path d="M42.7915 81.3559C46.6374 81.517 49.8249 79.9806 49.9111 77.9242C49.9973 75.8677 46.9495 74.07 43.1037 73.9088C39.2578 73.7476 36.0703 75.284 35.9841 77.3405C35.8979 79.3969 38.9457 81.1947 42.7915 81.3559Z" fill="#0C0D0B"/>
<path d="M87.0945 74.0762L58.0545 74.0255C56.2903 74.0224 54.8576 75.4501 54.8545 77.2143L54.8535 77.7951C54.8504 79.5593 56.2781 80.992 58.0423 80.9951L87.0823 81.0457C88.8465 81.0488 90.2792 79.6211 90.2823 77.8569L90.2833 77.2761C90.2864 75.5119 88.8587 74.0792 87.0945 74.0762Z" fill="#0C0D0B"/>
<path d="M152.755 73.8196L103.484 73.9916C102.201 73.9961 101.165 75.0398 101.169 76.3229L101.177 78.5493C101.181 79.8323 102.225 80.8688 103.508 80.8643L152.779 80.6924C154.062 80.6879 155.099 79.6441 155.094 78.3611L155.086 76.1347C155.082 74.8516 154.038 73.8151 152.755 73.8196Z" fill="#0C0D0B"/>
<path d="M72.0849 96.5566C74.9449 96.5915 77.2848 94.8647 77.3112 92.6997C77.3377 90.5347 75.0406 88.7513 72.1807 88.7163C69.3207 88.6814 66.9808 90.4082 66.9544 92.5732C66.9279 94.7382 69.2249 96.5216 72.0849 96.5566Z" fill="#0C0D0B"/>
<path d="M117.532 88.8611H89.6536C87.729 88.8611 86.1688 90.4213 86.1688 92.346V92.7332C86.1688 94.6578 87.729 96.218 89.6536 96.218H117.532C119.457 96.218 121.017 94.6578 121.017 92.7332V92.346C121.017 90.4213 119.457 88.8611 117.532 88.8611Z" fill="#0C0D0B"/>
<path d="M179.92 88.8611H132.391C130.68 88.8611 129.293 90.2481 129.293 91.9588V93.1204C129.293 94.8311 130.68 96.218 132.391 96.218H179.92C181.63 96.218 183.017 94.8311 183.017 93.1204V91.9588C183.017 90.2481 181.63 88.8611 179.92 88.8611Z" fill="#0C0D0B"/>
</g>
<defs>
<clipPath id="clip0_8_105">
<rect width="1055" height="130" fill="white"/>
</clipPath>
</defs>
</svg>
