<svg xmlns="http://www.w3.org/2000/svg" version="1.1" viewBox="0.00 0.00 250.00 250.00" width="250.00" height="250.00">
<path fill="#0c0d0b" d="&#10;  M 84.81 124.69&#10;  L 69.30 138.36&#10;  A 0.28 0.28 0.0 0 1 68.83 138.15&#10;  L 68.83 131.74&#10;  A 0.28 0.28 0.0 0 0 68.55 131.46&#10;  L 52.23 131.46&#10;  A 0.28 0.28 0.0 0 1 51.95 131.18&#10;  L 51.95 129.94&#10;  A 0.28 0.28 0.0 0 1 52.23 129.66&#10;  L 58.81 129.66&#10;  A 0.28 0.28 0.0 0 0 59.09 129.38&#10;  L 59.09 128.61&#10;  A 0.28 0.28 0.0 0 0 58.81 128.33&#10;  L 47.15 128.33&#10;  A 0.28 0.28 0.0 0 1 46.87 128.05&#10;  L 46.87 127.14&#10;  A 0.28 0.28 0.0 0 1 47.15 126.86&#10;  L 64.65 126.86&#10;  A 0.28 0.28 0.0 0 0 64.93 126.58&#10;  L 64.93 125.71&#10;  A 0.28 0.28 0.0 0 0 64.65 125.43&#10;  L 31.30 125.43&#10;  A 0.28 0.28 0.0 0 1 31.02 125.15&#10;  L 31.02 124.22&#10;  A 0.28 0.28 0.0 0 1 31.30 123.94&#10;  L 61.48 123.94&#10;  A 0.28 0.28 0.0 0 0 61.76 123.66&#10;  L 61.76 122.80&#10;  A 0.28 0.28 0.0 0 0 61.48 122.52&#10;  L 43.09 122.52&#10;  A 0.28 0.28 0.0 0 1 42.81 122.24&#10;  L 42.81 121.27&#10;  A 0.28 0.28 0.0 0 1 43.09 120.99&#10;  L 59.68 120.99&#10;  A 0.28 0.28 0.0 0 0 59.96 120.71&#10;  L 59.96 119.75&#10;  A 0.28 0.28 0.0 0 0 59.68 119.47&#10;  L 55.69 119.47&#10;  A 0.28 0.28 0.0 0 1 55.41 119.19&#10;  L 55.41 118.15&#10;  A 0.28 0.28 0.0 0 1 55.69 117.87&#10;  L 68.70 117.87&#10;  A 0.28 0.28 0.0 0 0 68.98 117.59&#10;  L 68.98 111.86&#10;  A 0.28 0.28 0.0 0 1 69.44 111.65&#10;  L 84.81 124.26&#10;  A 0.28 0.28 0.0 0 1 84.81 124.69&#10;  Z"/>
<path fill="#0c0d0b" d="&#10;  M 91.58 129.54&#10;  Q 93.65 130.63 96.78 130.50&#10;  A 2.12 1.98 0.1 0 0 98.80 128.61&#10;  Q 98.84 127.91 98.18 127.05&#10;  A 1.80 1.72 85.0 0 0 97.68 126.61&#10;  C 93.78 124.43 90.09 123.11 90.34 118.72&#10;  C 90.64 113.37 97.88 113.25 101.54 114.92&#10;  A 0.64 0.64 0.0 0 1 101.90 115.66&#10;  L 101.40 117.73&#10;  A 0.41 0.41 0.0 0 1 100.79 117.99&#10;  Q 98.67 116.70 95.81 117.10&#10;  A 1.79 1.63 -5.0 0 0 94.26 118.78&#10;  C 94.31 120.98 96.95 121.86 99.32 123.20&#10;  C 102.16 124.81 103.93 127.58 102.31 130.64&#10;  C 100.31 134.43 94.70 133.97 91.20 132.90&#10;  A 0.70 0.69 8.5 0 1 90.70 132.24&#10;  L 90.70 130.07&#10;  A 0.60 0.60 0.0 0 1 91.58 129.54&#10;  Z"/>
<path fill="#0c0d0b" d="&#10;  M 113.87 122.20&#10;  Q 116.39 122.20 117.08 122.07&#10;  A 0.68 0.67 -5.3 0 0 117.64 121.41&#10;  L 117.64 114.71&#10;  A 0.70 0.70 0.0 0 1 118.34 114.01&#10;  L 120.79 114.01&#10;  A 0.79 0.78 -1.2 0 1 121.58 114.76&#10;  Q 121.62 115.69 121.61 123.72&#10;  Q 121.61 131.75 121.56 132.68&#10;  A 0.79 0.78 1.2 0 1 120.77 133.43&#10;  L 118.32 133.43&#10;  A 0.70 0.70 0.0 0 1 117.62 132.73&#10;  L 117.63 126.03&#10;  A 0.68 0.67 5.4 0 0 117.08 125.36&#10;  Q 116.38 125.23 113.87 125.23&#10;  Q 111.36 125.23 110.66 125.36&#10;  A 0.68 0.67 -5.3 0 0 110.11 126.02&#10;  L 110.11 132.72&#10;  A 0.70 0.70 0.0 0 1 109.41 133.42&#10;  L 106.96 133.42&#10;  A 0.79 0.78 -1.2 0 1 106.17 132.67&#10;  Q 106.13 131.74 106.13 123.71&#10;  Q 106.14 115.68 106.18 114.75&#10;  A 0.79 0.78 1.2 0 1 106.97 114.00&#10;  L 109.42 114.00&#10;  A 0.70 0.70 0.0 0 1 110.12 114.71&#10;  L 110.11 121.41&#10;  A 0.68 0.67 5.4 0 0 110.66 122.07&#10;  Q 111.36 122.20 113.87 122.20&#10;  Z"/>
<path fill="#0c0d0b" d="&#10;  M 142.8217 126.1228&#10;  A 7.97 7.97 0.0 0 1 134.3670 133.5766&#10;  L 132.9099 133.4849&#10;  A 7.97 7.97 0.0 0 1 125.4560 125.0302&#10;  L 125.6783 121.4972&#10;  A 7.97 7.97 0.0 0 1 134.1330 114.0434&#10;  L 135.5901 114.1351&#10;  A 7.97 7.97 0.0 0 1 143.0440 122.5898&#10;  L 142.8217 126.1228&#10;  Z&#10;  M 134.2135 130.7999&#10;  A 6.97 4.83 90.3 0 0 139.0799 123.8553&#10;  A 6.97 4.83 90.3 0 0 134.2865 116.8601&#10;  A 6.97 4.83 90.3 0 0 129.4201 123.8047&#10;  A 6.97 4.83 90.3 0 0 134.2135 130.7999&#10;  Z"/>
<path fill="#0c0d0b" d="&#10;  M 147.29 114.17&#10;  Q 153.28 113.68 155.93 114.24&#10;  C 161.52 115.43 162.02 122.89 158.15 126.12&#10;  C 156.32 127.64 153.71 127.63 151.14 127.55&#10;  A 0.49 0.49 0.0 0 0 150.63 128.04&#10;  L 150.63 132.98&#10;  A 0.47 0.47 0.0 0 1 150.16 133.45&#10;  L 147.09 133.45&#10;  A 0.52 0.51 -90.0 0 1 146.58 132.93&#10;  L 146.58 114.94&#10;  A 0.77 0.76 88.0 0 1 147.29 114.17&#10;  Z&#10;  M 150.62 117.57&#10;  L 150.64 123.89&#10;  A 0.64 0.64 0.0 0 0 151.28 124.53&#10;  L 153.34 124.52&#10;  A 3.21 3.20 89.8 0 0 156.53 121.30&#10;  L 156.53 120.12&#10;  A 3.21 3.20 89.8 0 0 153.32 116.92&#10;  L 151.26 116.93&#10;  A 0.64 0.64 0.0 0 0 150.62 117.57&#10;  Z"/>
<path fill="#0c0d0b" d="&#10;  M 173.28 122.98&#10;  C 174.29 124.58 174.84 125.96 175.72 127.11&#10;  A 0.13 0.12 -64.3 0 0 175.94 127.03&#10;  L 175.94 114.73&#10;  A 0.58 0.58 0.0 0 1 176.52 114.15&#10;  L 179.03 114.15&#10;  A 0.53 0.53 0.0 0 1 179.56 114.68&#10;  L 179.56 133.06&#10;  A 0.48 0.47 -1.3 0 1 179.10 133.53&#10;  Q 176.88 133.61 176.27 133.47&#10;  A 1.54 1.53 -10.9 0 1 175.33 132.83&#10;  Q 174.86 132.15 170.17 124.72&#10;  C 169.17 123.13 168.62 121.74 167.74 120.60&#10;  A 0.13 0.12 -64.3 0 0 167.51 120.68&#10;  L 167.51 132.98&#10;  A 0.58 0.58 0.0 0 1 166.93 133.56&#10;  L 164.42 133.56&#10;  A 0.53 0.53 0.0 0 1 163.89 133.03&#10;  L 163.89 114.65&#10;  A 0.48 0.47 -1.3 0 1 164.35 114.18&#10;  Q 166.57 114.10 167.18 114.24&#10;  A 1.54 1.53 -10.9 0 1 168.13 114.87&#10;  Q 168.60 115.55 173.28 122.98&#10;  Z"/>
<path fill="#0c0d0b" d="&#10;  M 194.48 122.56&#10;  L 194.48 124.56&#10;  A 0.51 0.51 0.0 0 1 193.97 125.07&#10;  L 189.00 125.07&#10;  A 0.51 0.51 0.0 0 0 188.49 125.58&#10;  L 188.49 129.82&#10;  A 0.51 0.51 0.0 0 0 189.00 130.33&#10;  L 196.58 130.33&#10;  A 0.51 0.51 0.0 0 1 197.09 130.84&#10;  L 197.09 132.95&#10;  A 0.51 0.51 0.0 0 1 196.58 133.46&#10;  L 185.01 133.46&#10;  A 0.51 0.51 0.0 0 1 184.50 132.95&#10;  L 184.50 114.59&#10;  A 0.51 0.51 0.0 0 1 185.01 114.08&#10;  L 195.77 114.08&#10;  A 0.51 0.51 0.0 0 1 196.28 114.59&#10;  L 196.28 116.78&#10;  A 0.51 0.51 0.0 0 1 195.77 117.29&#10;  L 189.00 117.29&#10;  A 0.51 0.51 0.0 0 0 188.49 117.80&#10;  L 188.49 121.54&#10;  A 0.51 0.51 0.0 0 0 189.00 122.05&#10;  L 193.97 122.05&#10;  A 0.51 0.51 0.0 0 1 194.48 122.56&#10;  Z"/>
<path fill="#0c0d0b" d="&#10;  M 206.73 120.68&#10;  Q 206.93 120.68 207.36 119.95&#10;  Q 209.01 117.10 210.26 114.84&#10;  A 1.48 1.47 14.4 0 1 211.55 114.08&#10;  L 214.20 114.08&#10;  A 0.53 0.52 -73.6 0 1 214.64 114.89&#10;  Q 212.31 118.50 209.37 123.44&#10;  Q 209.35 123.47 209.35 123.76&#10;  Q 209.35 124.06 209.36 124.09&#10;  Q 212.22 129.08 214.49 132.73&#10;  A 0.53 0.52 74.6 0 1 214.03 133.53&#10;  L 211.38 133.48&#10;  A 1.48 1.47 -13.4 0 1 210.11 132.70&#10;  Q 208.90 130.42 207.29 127.55&#10;  Q 206.88 126.81 206.68 126.81&#10;  Q 206.48 126.80 206.05 127.54&#10;  Q 204.40 130.38 203.15 132.64&#10;  A 1.48 1.47 14.4 0 1 201.86 133.40&#10;  L 199.21 133.40&#10;  A 0.53 0.52 -73.6 0 1 198.77 132.59&#10;  Q 201.10 128.98 204.04 124.04&#10;  Q 204.06 124.01 204.06 123.72&#10;  Q 204.06 123.43 204.05 123.40&#10;  Q 201.19 118.41 198.92 114.76&#10;  A 0.53 0.52 74.6 0 1 199.38 113.96&#10;  L 202.03 114.00&#10;  A 1.48 1.47 -13.4 0 1 203.30 114.78&#10;  Q 204.51 117.06 206.12 119.94&#10;  Q 206.53 120.68 206.73 120.68&#10;  Z"/>
<path fill="#0c0d0b" d="&#10;  M 223.36 114.07&#10;  Q 226.92 114.08 230.09 114.08&#10;  A 0.87 0.87 0.0 0 1 230.96 114.95&#10;  L 230.96 116.62&#10;  A 0.69 0.68 0.0 0 1 230.27 117.30&#10;  L 226.00 117.30&#10;  A 0.61 0.61 0.0 0 0 225.39 117.91&#10;  L 225.39 132.74&#10;  A 0.70 0.69 89.6 0 1 224.71 133.44&#10;  Q 224.36 133.45 223.35 133.45&#10;  Q 222.34 133.45 222.00 133.44&#10;  A 0.70 0.69 -89.6 0 1 221.31 132.74&#10;  L 221.32 117.91&#10;  A 0.61 0.61 0.0 0 0 220.71 117.30&#10;  L 216.44 117.30&#10;  A 0.69 0.68 0.0 0 1 215.75 116.62&#10;  L 215.75 114.95&#10;  A 0.87 0.87 0.0 0 1 216.62 114.08&#10;  Q 219.80 114.08 223.36 114.07&#10;  Z"/>
<rect fill="#0c0d0b" x="-2.38" y="-0.79" transform="translate(36.51,118.67) rotate(0.3)" width="4.76" height="1.58" rx="0.68"/>
<rect fill="#0c0d0b" x="-3.47" y="-0.80" transform="translate(43.49,118.67) rotate(0.2)" width="6.94" height="1.60" rx="0.66"/>
<rect fill="#0c0d0b" x="-2.65" y="-0.79" transform="translate(51.46,118.66) rotate(-0.2)" width="5.30" height="1.58" rx="0.57"/>
<ellipse fill="#0c0d0b" cx="0.00" cy="0.00" transform="translate(25.15,121.66) rotate(-3.8)" rx="1.25" ry="0.86"/>
<rect fill="#0c0d0b" x="-6.44" y="-0.80" transform="translate(34.14,121.68) rotate(0.1)" width="12.88" height="1.60" rx="0.74"/>
<rect fill="#0c0d0b" x="-1.79" y="-0.86" transform="translate(17.75,124.41) rotate(0.2)" width="3.58" height="1.72" rx="0.51"/>
<circle fill="#0c0d0b" cx="13.90" cy="124.49" r="0.84"/>
<rect fill="#0c0d0b" x="-3.42" y="-0.84" transform="translate(24.96,124.58) rotate(0.7)" width="6.84" height="1.68" rx="0.58"/>
<ellipse fill="#0c0d0b" cx="0.00" cy="0.00" transform="translate(17.98,127.61) rotate(0.5)" rx="1.06" ry="0.78"/>
<ellipse fill="#0c0d0b" cx="0.00" cy="0.00" transform="translate(21.89,127.61) rotate(2.4)" rx="1.44" ry="0.77"/>
<rect fill="#0c0d0b" x="-3.66" y="-0.72" transform="translate(28.01,127.59) rotate(0.1)" width="7.32" height="1.44" rx="0.66"/>
<rect fill="#0c0d0b" x="-5.57" y="-0.71" transform="translate(39.49,127.55) rotate(-0.2)" width="11.14" height="1.42" rx="0.48"/>
<ellipse fill="#0c0d0b" cx="0.00" cy="0.00" transform="translate(27.92,130.71) rotate(0.7)" rx="1.07" ry="0.81"/>
<rect fill="#0c0d0b" x="30.82" y="129.93" width="7.20" height="1.52" rx="0.72"/>
<rect fill="#0c0d0b" x="39.73" y="129.93" width="11.10" height="1.52" rx="0.64"/>
</svg>